<?xml version="1.0" encoding="UTF-8"?>
<!DOCTYPE svg PUBLIC "-//W3C//DTD SVG 1.1//EN" "http://www.w3.org/Graphics/SVG/1.1/DTD/svg11.dtd">
<!-- Creator: CorelDRAW 2018 (64 Bit) -->
<svg xmlns="http://www.w3.org/2000/svg" xml:space="preserve" width="4.7297mm" height="4.5313mm" version="1.1" style="shape-rendering:geometricPrecision; text-rendering:geometricPrecision; image-rendering:optimizeQuality; fill-rule:evenodd; clip-rule:evenodd"
viewBox="0 0 14.58 13.97"
 xmlns:xlink="http://www.w3.org/1999/xlink">
 <defs>
  <style type="text/css">
   <![CDATA[
    .fil0 {fill:#FF6600}
   ]]>
  </style>
 </defs>
 <g id="Capa_x0020_1">
  <metadata id="CorelCorpID_0Corel-Layer"/>
  <path class="fil0" d="M14.26 6.33c0.29,-0.28 0.39,-0.69 0.26,-1.07 -0.12,-0.38 -0.45,-0.65 -0.84,-0.71l-3.53 -0.51c-0.15,-0.02 -0.28,-0.12 -0.35,-0.25l-1.58 -3.2c-0.18,-0.36 -0.54,-0.58 -0.94,-0.58 -0.4,0 -0.76,0.22 -0.94,0.58l-1.58 3.2c-0.07,0.14 -0.2,0.23 -0.35,0.25l-3.53 0.51c-0.4,0.06 -0.72,0.33 -0.84,0.71 -0.12,0.38 -0.02,0.79 0.26,1.07l2.55 2.49c0.11,0.11 0.16,0.26 0.13,0.41l-0.6 3.52c-0.07,0.39 0.09,0.79 0.42,1.02 0.32,0.24 0.75,0.27 1.1,0.08l3.16 -1.66c0.13,-0.07 0.29,-0.07 0.43,0l3.16 1.66c0.15,0.08 0.32,0.12 0.49,0.12 0.22,0 0.43,-0.07 0.61,-0.2 0.32,-0.24 0.48,-0.63 0.42,-1.02l-0.6 -3.51c-0.03,-0.15 0.02,-0.3 0.13,-0.41l2.55 -2.49z"/>
 </g>
</svg>
