<?xml version="1.0" encoding="UTF-8"?>
<!DOCTYPE svg PUBLIC "-//W3C//DTD SVG 1.1//EN" "http://www.w3.org/Graphics/SVG/1.1/DTD/svg11.dtd">
<!-- Creator: CorelDRAW 2018 (64 Bit) -->
<svg xmlns="http://www.w3.org/2000/svg" xml:space="preserve" width="9.0176mm" height="8.9859mm" version="1.1" style="shape-rendering:geometricPrecision; text-rendering:geometricPrecision; image-rendering:optimizeQuality; fill-rule:evenodd; clip-rule:evenodd"
viewBox="0 0 24.31 24.23"
 xmlns:xlink="http://www.w3.org/1999/xlink">
 <defs>
  <style type="text/css">
   <![CDATA[
    .fil0 {fill:black}
   ]]>
  </style>
 </defs>
 <g id="Capa_x0020_1">
  <metadata id="CorelCorpID_0Corel-Layer"/>
  <g id="_2408564565904">
   <path class="fil0" d="M10.15 16.38c0.45,-0.09 0.83,-0.37 1.05,-0.75l13.11 0 0 -14.07 -3.76 0c-0.73,-0.89 -1.79,-1.48 -2.99,-1.55 -1.21,-0.08 -2.35,0.33 -3.22,1.15 -0.13,0.13 -0.26,0.26 -0.37,0.4l-9.98 0 0 8.39c-0.72,0.77 -1.17,1.8 -1.17,2.94l0 1.95c0,0.76 0.55,1.39 1.27,1.53 0.12,0.49 0.36,0.94 0.69,1.31l0 0.77 -2.73 0.82c-0.69,0.21 -1.21,0.78 -1.35,1.49l-0.69 3.45 14.24 0 -0.69 -3.45c-0.14,-0.71 -0.66,-1.28 -1.35,-1.49l-2.73 -0.82 0 -0.77c0.33,-0.37 0.56,-0.82 0.69,-1.31l0 0zm-1.47 2.15l-1.56 0.94 -1.56 -0.94 0 -0.2c0.46,0.27 0.99,0.42 1.56,0.42 0.57,0 1.1,-0.16 1.56,-0.42l0 0.2zm-2.01 2.96l0.89 0 0.28 1.95 -1.44 0 0.28 -1.95zm0.9 -0.78l-0.92 0 -0.14 -0.69 0.6 0.36 0.6 -0.36 -0.14 0.69zm-0.46 -2.74c-1.29,0 -2.34,-1.05 -2.34,-2.34l0 -1.28 1.56 -0.52 0 0.63 0.39 0c0.94,0 1.87,-0.19 2.74,-0.56l0 1.73c0,1.29 -1.05,2.34 -2.34,2.34zm3.13 -2.45l0 -1.35c0.23,0.14 0.39,0.39 0.39,0.67 0,0.29 -0.16,0.54 -0.39,0.67zm13.29 -13.18l0 8.96c-0.23,-0.49 -0.66,-0.86 -1.2,-1.02l-2.71 -0.81 0 -0.33c0.42,-0.42 0.7,-0.78 0.76,-1.4 0.73,-0.26 1.19,-1.22 1.19,-1.89l0 -1.43c0,-0.75 -0.19,-1.46 -0.51,-2.09l2.46 0zm-8.66 -0.61c0.72,-0.67 1.65,-1.01 2.64,-0.94 1.84,0.12 3.28,1.72 3.28,3.64l0 1.43c0,0.48 -0.4,1.17 -0.78,1.17l-0.39 0 0 0.39c0,0.6 -0.17,0.8 -0.66,1.28l-0.12 0.11 0 1.24 3.27 0.98c0.42,0.13 0.74,0.48 0.82,0.91l0.53 2.9 -12.04 0 0 -1.72 0.21 -1.17c0.08,-0.44 0.39,-0.79 0.81,-0.91l3.27 -0.98 0 -1.24 -0.12 -0.11c-0.49,-0.48 -0.66,-0.68 -0.66,-1.28l0 -0.39 -0.39 0c-0.38,0 -0.78,-0.69 -0.78,-1.17l0 -1.56c0,-0.98 0.4,-1.89 1.11,-2.57l0 0zm-1.42 0.61c-0.31,0.6 -0.48,1.27 -0.48,1.95l0 1.56c0,0.67 0.46,1.63 1.19,1.89 0.07,0.62 0.34,0.98 0.76,1.4l0 0.33 -2.71 0.81c-0.5,0.15 -0.9,0.49 -1.14,0.93 -0.65,-1.54 -2.18,-2.62 -3.96,-2.62 -0.87,0 -1.67,0.26 -2.34,0.7l0 -6.95 8.68 0zm-6.34 7.03c1.94,0 3.52,1.58 3.52,3.52l0 0.61c-0.12,-0.07 -0.25,-0.13 -0.39,-0.16l0 -0.45 -0.78 0 0 0.15c-0.73,0.36 -1.53,0.57 -2.34,0.62l0 -0.92 -2.34 0.78 0 -0.63 -0.78 0 0 0.45c-0.14,0.04 -0.27,0.09 -0.39,0.16l0 -0.61c0,-1.94 1.58,-3.52 3.52,-3.52zm-3.52 5.47c0,-0.29 0.16,-0.54 0.39,-0.67l0 1.35c-0.23,-0.14 -0.39,-0.38 -0.39,-0.67zm-2.15 6.08c0.08,-0.43 0.4,-0.77 0.81,-0.89l2.84 -0.85 0.5 0.3 0.33 1.63 -0.33 2.33 -1.56 0 0.33 -2.29 -0.77 -0.11 -0.34 2.4 -2.31 0 0.5 -2.52zm10.51 -0.89c0.42,0.12 0.73,0.47 0.81,0.89l0.5 2.52 -2.31 0 -0.34 -2.4 -0.77 0.11 0.33 2.29 -1.56 0 -0.33 -2.33 0.33 -1.63 0.5 -0.3 2.84 0.85zm0 0z"/>
   <path class="fil0" d="M17.28 6.25c-0.22,0 -0.39,-0.18 -0.39,-0.39l-0.78 0c0,0.51 0.33,0.94 0.78,1.1l0 0.46 0.78 0 0 -0.46c0.45,-0.16 0.78,-0.59 0.78,-1.1 0,-0.65 -0.53,-1.17 -1.17,-1.17 -0.22,0 -0.39,-0.18 -0.39,-0.39 0,-0.22 0.17,-0.39 0.39,-0.39 0.22,0 0.39,0.18 0.39,0.39l0.78 0c0,-0.51 -0.33,-0.94 -0.78,-1.1l0 -0.46 -0.78 0 0 0.46c-0.45,0.16 -0.78,0.59 -0.78,1.1 0,0.65 0.53,1.17 1.17,1.17 0.22,0 0.39,0.18 0.39,0.39 0,0.22 -0.18,0.39 -0.39,0.39l0 0zm0 0z"/>
   <path class="fil0" d="M5.56 3.52l0.78 0 0 0.78 -0.78 0 0 -0.78zm0 0z"/>
   <path class="fil0" d="M7.12 3.52l5.08 0 0 0.78 -5.08 0 0 -0.78zm0 0z"/>
   <path class="fil0" d="M5.56 5.08l6.64 0 0 0.78 -6.64 0 0 -0.78zm0 0z"/>
   <path class="fil0" d="M5.56 6.64l6.64 0 0 0.78 -6.64 0 0 -0.78zm0 0z"/>
  </g>
 </g>
</svg>
