<?xml version="1.0" encoding="UTF-8"?>
<!DOCTYPE svg PUBLIC "-//W3C//DTD SVG 1.1//EN" "http://www.w3.org/Graphics/SVG/1.1/DTD/svg11.dtd">
<!-- Creator: CorelDRAW 2018 (64 Bit) -->
<svg xmlns="http://www.w3.org/2000/svg" xml:space="preserve" width="6.496mm" height="6.0867mm" version="1.1" style="shape-rendering:geometricPrecision; text-rendering:geometricPrecision; image-rendering:optimizeQuality; fill-rule:evenodd; clip-rule:evenodd"
viewBox="0 0 12.52 11.73"
 xmlns:xlink="http://www.w3.org/1999/xlink">
 <defs>
  <style type="text/css">
   <![CDATA[
    .fil0 {fill:black}
   ]]>
  </style>
 </defs>
 <g id="Capa_x0020_1">
  <metadata id="CorelCorpID_0Corel-Layer"/>
  <g id="_2408492583952">
   <path class="fil0" d="M2.08 3.39l5.09 0c0.2,0 0.37,-0.16 0.37,-0.36 0,-0.2 -0.16,-0.37 -0.37,-0.37l-5.09 0c-0.2,0 -0.37,0.16 -0.37,0.37 0,0.2 0.16,0.36 0.37,0.36l0 0z"/>
   <path class="fil0" d="M2.08 4.64l5.09 0c0.2,0 0.37,-0.16 0.37,-0.36 0,-0.2 -0.16,-0.37 -0.37,-0.37l-5.09 0c-0.2,0 -0.37,0.16 -0.37,0.37 0,0.2 0.16,0.36 0.37,0.36l0 0z"/>
   <path class="fil0" d="M4.77 8.93l-2.69 0c-0.2,0 -0.37,0.16 -0.37,0.36 0,0.2 0.16,0.37 0.37,0.37l2.69 0c0.2,0 0.36,-0.16 0.36,-0.37 0,-0.2 -0.16,-0.36 -0.36,-0.36l0 0z"/>
   <path class="fil0" d="M12.35 0.7l-1.07 -0.64c-0.08,-0.05 -0.18,-0.06 -0.28,-0.04 -0.09,0.02 -0.17,0.08 -0.22,0.17l-1.87 3.11 0 -2.21c0,-0.2 -0.16,-0.36 -0.36,-0.36l-8.17 0c-0.2,0 -0.36,0.16 -0.36,0.36l0 10.28c0,0.2 0.16,0.37 0.36,0.37l8.17 0c0.2,0 0.36,-0.16 0.36,-0.37l0 -4.23 3.57 -5.95c0.1,-0.17 0.05,-0.4 -0.13,-0.5l0 0zm-4.71 7.15l-0.61 0.5 0.16 -0.77 3.5 -5.84 0.45 0.27 -3.5 5.84zm3.88 -6.46l-0.45 -0.27 0.15 -0.25 0.45 0.27 -0.15 0.25zm-10.78 9.62l0 -9.56 7.44 0 0 3.06 -0.64 1.07c0,-0.02 0,-0.04 0,-0.05 0,-0.2 -0.16,-0.36 -0.37,-0.36l-5.09 0c-0.2,0 -0.37,0.16 -0.37,0.36 0,0.2 0.16,0.37 0.37,0.37l5.09 0c0.08,0 0.16,-0.03 0.22,-0.07l-0.36 0.6 -4.95 0c-0.2,0 -0.37,0.16 -0.37,0.36 0,0.2 0.16,0.36 0.37,0.36l4.51 0 -0.06 0.1c-0.02,0.04 -0.04,0.07 -0.04,0.11l-0.06 0.3 -4.34 0c-0.2,0 -0.37,0.16 -0.37,0.36 0,0.2 0.16,0.37 0.37,0.37l4.19 0 -0.17 0.82c-0.03,0.15 0.04,0.31 0.17,0.39 0.06,0.03 0.12,0.05 0.19,0.05 0.08,0 0.17,-0.03 0.23,-0.08l1.45 -1.21c0.01,-0.01 0.02,-0.02 0.03,-0.03l0 2.67 -7.44 0z"/>
  </g>
 </g>
</svg>
