<?xml version="1.0" encoding="UTF-8"?>
<!DOCTYPE svg PUBLIC "-//W3C//DTD SVG 1.1//EN" "http://www.w3.org/Graphics/SVG/1.1/DTD/svg11.dtd">
<!-- Creator: CorelDRAW 2018 (64 Bit) -->
<svg xmlns="http://www.w3.org/2000/svg" xml:space="preserve" width="7.6372mm" height="7.6407mm" version="1.1" style="shape-rendering:geometricPrecision; text-rendering:geometricPrecision; image-rendering:optimizeQuality; fill-rule:evenodd; clip-rule:evenodd"
viewBox="0 0 17.37 17.38"
 xmlns:xlink="http://www.w3.org/1999/xlink">
 <defs>
  <style type="text/css">
   <![CDATA[
    .fil0 {fill:black}
   ]]>
  </style>
 </defs>
 <g id="Capa_x0020_1">
  <metadata id="CorelCorpID_0Corel-Layer"/>
  <g id="_2408676843888">
   <path class="fil0" d="M16.99 15.14l-3.15 -3.15c0.09,-0.13 0.07,-0.31 -0.04,-0.43 -0.12,-0.12 -0.29,-0.13 -0.43,-0.04l-0.84 -0.84c0.63,-0.93 1.02,-2.01 1.14,-3.14 0.16,-1.54 -0.22,-3.1 -1.05,-4.4 -0.1,-0.16 -0.31,-0.2 -0.47,-0.1 -0.16,0.1 -0.2,0.31 -0.1,0.47 1.56,2.42 1.21,5.66 -0.83,7.7 -2.41,2.41 -6.33,2.41 -8.73,0 -2.41,-2.41 -2.41,-6.33 0,-8.73 2.04,-2.04 5.18,-2.4 7.63,-0.88 0.16,0.1 0.37,0.05 0.47,-0.11 0.1,-0.16 0.05,-0.37 -0.11,-0.47 -1.29,-0.8 -2.84,-1.16 -4.36,-0.99 -1.54,0.17 -3,0.87 -4.1,1.97 -2.67,2.67 -2.67,7.02 0,9.69 1.34,1.34 3.09,2 4.85,2 1.34,0 2.67,-0.39 3.83,-1.16l0.84 0.84c-0.13,0.13 -0.12,0.34 0.01,0.47 0.07,0.07 0.15,0.1 0.24,0.1 0.08,0 0.17,-0.03 0.23,-0.09l3.14 3.14c0.25,0.25 0.59,0.38 0.92,0.38 0.34,0 0.67,-0.13 0.93,-0.39 0.51,-0.51 0.51,-1.34 0.01,-1.85zm-5.61 -2.86l0.9 -0.9 0.61 0.61 -0.9 0.9 -0.61 -0.61zm5.12 4.23c-0.25,0.25 -0.65,0.25 -0.89,0.01l-3.14 -3.14 0.9 -0.9 3.14 3.14c0.24,0.24 0.24,0.64 -0.01,0.89z"/>
   <path class="fil0" d="M11.71 2.02l-0.01 -0.01c-0.13,-0.13 -0.35,-0.13 -0.48,-0 -0.13,0.13 -0.13,0.35 -0,0.48l0.01 0.01c0.07,0.07 0.15,0.1 0.24,0.1 0.09,0 0.17,-0.03 0.24,-0.1 0.13,-0.13 0.13,-0.35 0,-0.48z"/>
   <path class="fil0" d="M6.85 1.63c-2.88,0 -5.23,2.34 -5.23,5.23 0,2.88 2.34,5.23 5.23,5.23 2.88,0 5.23,-2.34 5.23,-5.23 0,-2.88 -2.34,-5.23 -5.23,-5.23zm0 9.77c-2.51,0 -4.55,-2.04 -4.55,-4.55 0,-2.51 2.04,-4.55 4.55,-4.55 2.51,0 4.55,2.04 4.55,4.55 0,2.51 -2.04,4.55 -4.55,4.55z"/>
   <path class="fil0" d="M8.14 6.41c0.21,-0.27 0.34,-0.62 0.34,-0.99l0 -0.44c0,-0.9 -0.73,-1.63 -1.63,-1.63 -0.9,0 -1.63,0.73 -1.63,1.63l0 0.44c0,0.37 0.13,0.72 0.34,0.99 -1.08,0.2 -1.9,1.15 -1.9,2.29l0 0.18c0,0.19 0.15,0.34 0.34,0.34l5.7 0c0.19,0 0.34,-0.15 0.34,-0.34l0 -0.18c0,-1.14 -0.82,-2.09 -1.9,-2.29zm-2.24 -1.44c0,-0.52 0.43,-0.95 0.95,-0.95 0.52,0 0.95,0.43 0.95,0.95l0 0.44c0,0.52 -0.43,0.95 -0.95,0.95 -0.52,0 -0.95,-0.43 -0.95,-0.95l0 -0.44zm-1.55 3.56c0.08,-0.83 0.79,-1.49 1.64,-1.49l1.72 0c0.86,0 1.56,0.65 1.64,1.49l-5.01 0z"/>
   <path class="fil0" d="M15.01 0.41c-0.19,0 -0.34,0.15 -0.34,0.34l0 0.42c0,0.19 0.15,0.34 0.34,0.34 0.19,0 0.34,-0.15 0.34,-0.34l0 -0.42c0,-0.19 -0.15,-0.34 -0.34,-0.34z"/>
   <path class="fil0" d="M15.01 2.43c-0.19,0 -0.34,0.15 -0.34,0.34l0 0.42c0,0.19 0.15,0.34 0.34,0.34 0.19,0 0.34,-0.15 0.34,-0.34l0 -0.42c0,-0.19 -0.15,-0.34 -0.34,-0.34z"/>
   <path class="fil0" d="M16.23 1.63l-0.42 0c-0.19,0 -0.34,0.15 -0.34,0.34 0,0.19 0.15,0.34 0.34,0.34l0.42 0c0.19,0 0.34,-0.15 0.34,-0.34 0,-0.19 -0.15,-0.34 -0.34,-0.34z"/>
   <path class="fil0" d="M14.21 1.63l-0.42 0c-0.19,0 -0.34,0.15 -0.34,0.34 0,0.19 0.15,0.34 0.34,0.34l0.42 0c0.19,0 0.34,-0.15 0.34,-0.34 0,-0.19 -0.15,-0.34 -0.34,-0.34z"/>
   <path class="fil0" d="M2.1 13.98c-0.19,0 -0.34,0.15 -0.34,0.34l0 0.42c0,0.19 0.15,0.34 0.34,0.34 0.19,0 0.34,-0.15 0.34,-0.34l0 -0.42c0,-0.19 -0.15,-0.34 -0.34,-0.34z"/>
   <path class="fil0" d="M2.1 16c-0.19,0 -0.34,0.15 -0.34,0.34l0 0.42c0,0.19 0.15,0.34 0.34,0.34 0.19,0 0.34,-0.15 0.34,-0.34l0 -0.42c0,-0.19 -0.15,-0.34 -0.34,-0.34z"/>
   <path class="fil0" d="M3.32 15.2l-0.42 0c-0.19,0 -0.34,0.15 -0.34,0.34 0,0.19 0.15,0.34 0.34,0.34l0.42 0c0.19,0 0.34,-0.15 0.34,-0.34 0,-0.19 -0.15,-0.34 -0.34,-0.34z"/>
   <path class="fil0" d="M1.3 15.2l-0.42 0c-0.19,0 -0.34,0.15 -0.34,0.34 0,0.19 0.15,0.34 0.34,0.34l0.42 0c0.19,0 0.34,-0.15 0.34,-0.34 0,-0.19 -0.15,-0.34 -0.34,-0.34z"/>
  </g>
 </g>
</svg>
