<?xml version="1.0" encoding="UTF-8"?>
<!DOCTYPE svg PUBLIC "-//W3C//DTD SVG 1.1//EN" "http://www.w3.org/Graphics/SVG/1.1/DTD/svg11.dtd">
<!-- Creator: CorelDRAW 2018 (64 Bit) -->
<svg xmlns="http://www.w3.org/2000/svg" xml:space="preserve" width="7.4031mm" height="5.2879mm" version="1.1" style="shape-rendering:geometricPrecision; text-rendering:geometricPrecision; image-rendering:optimizeQuality; fill-rule:evenodd; clip-rule:evenodd"
viewBox="0 0 25.73 18.38"
 xmlns:xlink="http://www.w3.org/1999/xlink">
 <defs>
  <style type="text/css">
   <![CDATA[
    .fil0 {fill:#A1A5A8}
   ]]>
  </style>
 </defs>
 <g id="Capa_x0020_1">
  <metadata id="CorelCorpID_0Corel-Layer"/>
  <path class="fil0" d="M12.86 12.86l-3.18 -2.79 -9.1 7.8c0.33,0.31 0.78,0.5 1.27,0.5l22.02 0c0.49,0 0.94,-0.19 1.26,-0.5l-9.09 -7.8 -3.18 2.79zm3.98 -3.53l8.88 7.55 0 -15.27 -8.88 7.72zm-16.85 -7.72l0 15.27 8.88 -7.55 -8.88 -7.72zm25.15 -1.12c-0.33,-0.31 -0.78,-0.5 -1.27,-0.5l-22.02 0c-0.49,0 -0.94,0.19 -1.27,0.5l12.28 10.52 12.28 -10.53z"/>
 </g>
</svg>
