<?xml version="1.0" encoding="UTF-8"?>
<!DOCTYPE svg PUBLIC "-//W3C//DTD SVG 1.1//EN" "http://www.w3.org/Graphics/SVG/1.1/DTD/svg11.dtd">
<!-- Creator: CorelDRAW 2018 (64 Bit) -->
<svg xmlns="http://www.w3.org/2000/svg" xml:space="preserve" width="4.7522mm" height="5.5909mm" version="1.1" style="shape-rendering:geometricPrecision; text-rendering:geometricPrecision; image-rendering:optimizeQuality; fill-rule:evenodd; clip-rule:evenodd"
viewBox="0 0 9.68 11.39"
 xmlns:xlink="http://www.w3.org/1999/xlink">
 <defs>
  <style type="text/css">
   <![CDATA[
    .fil0 {fill:#A1A5A8}
   ]]>
  </style>
 </defs>
 <g id="Capa_x0020_1">
  <metadata id="CorelCorpID_0Corel-Layer"/>
  <path class="fil0" d="M4.84 11.39c0.63,0 1.14,-0.51 1.14,-1.14l-2.28 0c0,0.63 0.51,1.14 1.14,1.14zm3.7 -3.42l0 -3.13c0,-1.76 -1.2,-3.19 -2.85,-3.59l0 -0.4c0,-0.46 -0.4,-0.85 -0.85,-0.85 -0.46,0 -0.85,0.4 -0.85,0.85l0 0.4c-1.65,0.4 -2.85,1.82 -2.85,3.59l0 3.13 -1.14 1.14 0 0.57 9.68 0 0 -0.57 -1.14 -1.14z"/>
 </g>
</svg>
