<svg id="Capa_1" data-name="Capa 1" xmlns="http://www.w3.org/2000/svg" viewBox="0 0 200 98.86"><defs><style>.cls-1{fill:#cb6232;}</style></defs><title>Flechas</title><path class="cls-1" d="M177.46,71.46a67.66,67.66,0,0,0-4.19-8.63,1.15,1.15,0,0,0-.13-1,43.12,43.12,0,0,0-6.79-8.72,52.63,52.63,0,0,0-18.05-13.49c-13.63-6.13-29.47-7-44.15-5.38q-2.79.31-5.56.76c-12.33-.88-24.69.77-36,6.18C53,45.8,44.66,52.55,37,60q1.33-5.37,3-10.66,2.15-6.27,4.29-12.54c.51-1.49-1.78-2.13-2.33-.69-.22.59-.43,1.18-.65,1.78a1.35,1.35,0,0,0-2.61-.62c-.53,1.27-1,2.54-1.51,3.81l1.48-8.31c.3-1.7-2.2-2.52-2.63-.78C33,44.23,30.43,56.57,28.32,69l-1,1.06a1.32,1.32,0,0,0,.26,2,1.73,1.73,0,0,0,0,1.22c-.21,1.32-.45,2.64-.65,4a1.35,1.35,0,0,0,1.38,1.41,1.3,1.3,0,0,0,1.85-.74l.06-.17q4.83-2.95,9.81-5.61L61.75,63.1l2.37-.8a1.6,1.6,0,0,0,.72-.49l.9-.38c1.16-.49.85-2.09,0-2.61a1.29,1.29,0,0,0-1.51-.6c-2.7.64-5.36,1.41-8,2.25q-6.75,1.09-13.39,2.65A117.06,117.06,0,0,1,55.25,54c11.91-5.52,24.9-8.86,38-10.76A205.91,205.91,0,0,1,117.67,41a224.32,224.32,0,0,1,25.82,8.53C155.82,54.3,169.28,60,175,72.79,175.77,74.44,178.11,73.08,177.46,71.46ZM42.28,61.25Q40.7,62.61,39.17,64l-1.24.32C39.36,63.28,40.8,62.23,42.28,61.25ZM86.06,37.79a114.83,114.83,0,0,0-28.6,12.44A104.63,104.63,0,0,0,44,57.13,89.27,89.27,0,0,1,62,44.5,64.14,64.14,0,0,1,86.06,37.79ZM108.23,39c-3.25.25-6.45.57-9.54.93a166.69,166.69,0,0,0-25.55,4.88,115,115,0,0,1,24.7-7.08q2.52.16,5,.47C104.67,38.38,106.46,38.65,108.23,39Zm37.63,2.56c-8.52-2.48-17.83-3.22-27-3.08-3.23-.82-6.47-1.53-9.75-2.1,11.79-.81,23.95.25,34.88,4.39C144.6,41,145.23,41.25,145.86,41.52Zm21.4,17.18C161.61,54.21,154.76,51,148,48.3c-6.36-2.57-12.83-5-19.41-7.07,13.65,1,26.62,4.82,36.2,14.31C165.66,56.56,166.47,57.62,167.27,58.7Z"/></svg>