<svg id="Capa_1" data-name="Capa 1" xmlns="http://www.w3.org/2000/svg" viewBox="0 0 200 98.86"><defs><style>.cls-1{fill:#cb6232;}</style></defs><title>Flechas</title><path class="cls-1" d="M30.72,60.16A65.86,65.86,0,0,0,37,67.06a1.12,1.12,0,0,0,.4.9,42,42,0,0,0,8.74,6.27,51.22,51.22,0,0,0,20.57,7.62c14.41,2,29.44-1.59,42.7-7.14q2.52-1.06,5-2.24c11.75-2.57,22.84-7.51,31.89-15.68,7.73-7,13.62-15.57,18.69-24.62q.24,5.38.18,10.77-.28,6.45-.55,12.89c-.07,1.53,2.25,1.5,2.36,0,0-.61.08-1.22.12-1.84a1.31,1.31,0,0,0,2.61-.14c.14-1.33.26-2.65.36-4l.91,8.16c.19,1.67,2.74,1.75,2.67,0-.52-12.27-1.54-24.49-3-36.67l.63-1.26a1.29,1.29,0,0,0-.8-1.81,1.68,1.68,0,0,0-.35-1.13c-.17-1.29-.31-2.59-.48-3.88a1.32,1.32,0,0,0-1.68-.93,1.26,1.26,0,0,0-1.53,1.2v.17q-3.7,4.08-7.61,7.94L141,36.09l-2,1.4a1.55,1.55,0,0,0-.54.66l-.74.6c-1,.77-.22,2.18.76,2.42a1.26,1.26,0,0,0,1.58.14c2.34-1.34,4.61-2.79,6.83-4.3q6-2.88,11.78-6.16a113.93,113.93,0,0,1-9.12,11.91,133.5,133.5,0,0,1-32.52,20.51,200.41,200.41,0,0,1-22.15,8.84,218.33,218.33,0,0,1-26.45-.85c-12.84-1.06-27-2.64-35.86-13C31.48,56.91,29.67,58.82,30.72,60.16Zm129-27.7q1.1-1.7,2.14-3.45l1.07-.64C161.9,29.76,160.84,31.13,159.73,32.45Zm-34.4,34A111.77,111.77,0,0,0,148.6,46.93a101.83,101.83,0,0,0,10.69-10.16,86.89,86.89,0,0,1-13.4,16.76A62.43,62.43,0,0,1,125.33,66.42Zm-21,5c3-1.13,5.86-2.31,8.65-3.5a162.24,162.24,0,0,0,22.5-11.59,111.9,111.9,0,0,1-21.11,13.41q-2.39.54-4.83.94C107.79,71,106,71.23,104.3,71.43Zm-35.83,8c8.64,0,17.53-1.9,26.09-4.58,3.24-.13,6.46-.36,9.68-.72-10.78,4-22.43,6.36-33.77,5.51C69.79,79.56,69.13,79.48,68.47,79.4ZM43.76,69.26c6.52,2.63,13.79,3.71,20.85,4.4,6.64.64,13.35,1.12,20.06,1.26-13,2.84-26.18,2.83-37.74-3.39C45.85,70.82,44.8,70.05,43.76,69.26Z"/></svg>