<?xml version="1.0" encoding="UTF-8"?>
<!DOCTYPE svg PUBLIC "-//W3C//DTD SVG 1.1//EN" "http://www.w3.org/Graphics/SVG/1.1/DTD/svg11.dtd">
<!-- Creator: CorelDRAW X7 -->
<svg xmlns="http://www.w3.org/2000/svg" xml:space="preserve" width="47.2174mm" height="9.7546mm" version="1.1" style="shape-rendering:geometricPrecision; text-rendering:geometricPrecision; image-rendering:optimizeQuality; fill-rule:evenodd; clip-rule:evenodd"
viewBox="0 0 1054 218"
 xmlns:xlink="http://www.w3.org/1999/xlink">
 <defs>
  <style type="text/css">
   <![CDATA[
    .fil1 {fill:#222F37}
    .fil0 {fill:#ED6700}
    .fil2 {fill:#222F37;fill-rule:nonzero}
    .fil3 {fill:#ED6700;fill-rule:nonzero}
   ]]>
  </style>
 </defs>
 <g id="Capa_x0020_1">
  <metadata id="CorelCorpID_0Corel-Layer"/>
  <path class="fil0" d="M348 0l35 0c5,0 8,4 8,8l0 76 69 -77c4,-4 9,-7 13,-6l50 0c4,0 4,7 1,10l-133 140 0 58c0,5 -3,8 -8,8l-35 0c-5,0 -9,-3 -9,-8l0 -201c0,-4 4,-8 9,-8z"/>
  <path class="fil1" d="M473 218l45 0c4,0 6,-8 4,-11l-58 -93 -37 39 35 58c2,4 7,7 11,7z"/>
  <path class="fil2" d="M18 44l0 46 31 0c11,0 19,-2 23,-6 5,-3 7,-10 7,-18 0,-8 -2,-13 -6,-17 -5,-3 -13,-5 -24,-5l-31 0zm-18 -15l52 0c8,0 14,0 18,1 4,1 7,2 11,4 5,3 9,7 12,12 3,6 5,12 5,20 0,7 -2,13 -5,18 -3,5 -7,9 -14,12 6,1 9,4 12,7 2,4 3,10 4,18l1 22c0,4 1,8 2,10 1,2 2,4 4,5l0 4 -21 0c-1,-3 -3,-9 -3,-18l0 -1 -1 -17c-1,-9 -3,-15 -6,-17 -3,-3 -11,-4 -24,-4l-29 0 0 57 -18 0 0 -133zm133 76l53 0c0,-9 -2,-16 -7,-21 -4,-5 -10,-8 -19,-8 -8,0 -14,3 -19,8 -4,4 -7,11 -8,21zm53 26l16 0c-2,10 -6,19 -14,25 -7,6 -17,9 -28,9 -14,0 -24,-5 -32,-14 -8,-9 -12,-21 -12,-36 0,-17 4,-30 12,-39 8,-9 18,-14 32,-14 14,0 24,4 32,13 8,8 11,20 11,36 0,2 0,3 0,4 0,1 0,2 0,3l-70 0c1,10 3,18 8,24 5,5 12,8 20,8 7,0 12,-2 17,-5 4,-3 7,-8 8,-14zm105 -18c0,-12 -2,-21 -7,-27 -5,-6 -12,-9 -22,-9 -9,0 -16,3 -21,10 -5,6 -7,16 -7,28 0,11 2,20 7,26 6,6 13,9 22,9 9,0 16,-3 21,-9 5,-7 7,-16 7,-28zm15 -84l0 133 -15 0 0 -12c-4,5 -9,8 -14,11 -6,2 -11,4 -18,4 -13,0 -23,-5 -31,-14 -7,-9 -11,-22 -11,-37 0,-16 4,-29 11,-38 8,-9 18,-14 31,-14 7,0 13,1 18,4 5,2 10,6 14,11l0 -48 15 0z"/>
  <path class="fil2" d="M589 148c-6,5 -11,9 -17,12 -5,3 -11,4 -18,4 -10,0 -17,-3 -23,-8 -5,-5 -8,-12 -8,-21 0,-9 3,-16 8,-21 5,-5 14,-8 25,-9 3,-1 7,-1 11,-2 9,-1 14,-1 16,-2 1,-1 3,-2 3,-3 1,-1 1,-4 1,-8 0,-5 -2,-8 -5,-11 -4,-2 -9,-3 -17,-3 -7,0 -13,1 -17,4 -3,3 -5,8 -5,13l-16 0 0 0c0,-10 4,-18 11,-23 6,-6 16,-9 28,-9 13,0 22,3 28,7 7,5 10,13 10,23l0 48c0,5 0,7 1,8 1,2 3,2 5,2 0,0 1,0 2,0 0,0 1,0 2,0l0 12c-2,1 -4,1 -5,1 -2,1 -3,1 -4,1 -6,0 -10,-1 -12,-4 -3,-2 -4,-6 -4,-10l0 -1zm-2 -36c-4,2 -12,4 -22,5 -4,1 -7,1 -9,1 -6,1 -10,3 -12,6 -3,2 -4,6 -4,11 0,5 1,8 4,11 3,2 7,4 13,4 9,0 16,-3 22,-7 5,-4 8,-10 8,-17l0 -14zm35 18l16 0c0,6 3,11 7,14 4,4 10,5 18,5 7,0 12,-1 16,-4 4,-2 6,-6 6,-11 0,-3 -1,-6 -3,-8 -2,-2 -6,-4 -12,-5l-18 -5c-10,-2 -17,-5 -21,-9 -4,-4 -6,-10 -6,-18 0,-8 3,-15 10,-20 6,-5 15,-8 26,-8 12,0 21,3 28,8 6,6 10,13 10,22l0 0 -16 0c0,-5 -2,-9 -6,-12 -4,-2 -9,-4 -16,-4 -6,0 -11,1 -15,4 -3,2 -5,5 -5,10 0,3 1,5 3,7 2,2 6,3 12,5l16 3c11,3 19,6 23,10 4,5 6,11 6,18 0,10 -3,18 -10,24 -7,5 -17,8 -30,8 -12,0 -22,-3 -28,-9 -7,-6 -11,-14 -11,-25zm118 7c0,4 0,7 2,8 1,2 3,2 7,2 0,0 2,0 3,0 1,0 3,0 5,0l0 14c-2,0 -5,1 -7,1 -2,0 -4,0 -6,0 -7,0 -13,-1 -16,-4 -3,-3 -4,-8 -4,-16l0 -65 -15 0 0 -13 15 0 0 -27 16 0 0 27 17 0 0 13 -17 0 0 60zm45 -33l53 0c0,-9 -2,-16 -7,-21 -4,-5 -11,-7 -19,-7 -8,0 -14,2 -19,7 -4,5 -7,12 -8,21zm53 26l16 0c-2,10 -7,19 -14,25 -8,6 -17,9 -28,9 -14,0 -24,-4 -32,-13 -8,-9 -12,-22 -12,-37 0,-17 4,-30 12,-39 7,-9 18,-14 32,-14 13,0 24,4 32,13 7,8 11,21 11,36 0,2 0,4 0,5 0,0 0,1 0,2l-70 0c0,10 3,18 8,24 5,6 11,8 20,8 7,0 12,-1 16,-5 5,-3 8,-8 9,-14zm36 31l0 -133 16 0 0 133 -16 0zm42 0l0 -133 16 0 0 133 -16 0zm101 -13c-5,5 -10,9 -16,12 -6,3 -12,4 -18,4 -10,0 -18,-3 -23,-8 -6,-5 -9,-12 -9,-21 0,-9 3,-16 9,-21 5,-5 13,-8 24,-9 3,-1 7,-1 12,-2 8,-1 13,-1 15,-2 2,-1 3,-2 4,-3 0,-1 1,-4 1,-8 0,-5 -2,-8 -6,-11 -3,-2 -9,-3 -16,-3 -8,0 -13,1 -17,4 -4,3 -6,8 -6,13l-15 0 0 0c0,-10 3,-18 10,-23 7,-6 16,-9 28,-9 13,0 23,3 29,7 6,5 9,13 9,23l0 48c0,5 1,7 2,8 0,2 2,2 4,2 1,0 2,0 2,0 1,0 2,0 3,0l0 12c-2,1 -4,1 -5,1 -2,1 -3,1 -5,1 -5,0 -9,-1 -12,-4 -3,-2 -4,-6 -4,-10l0 -1zm-1 -36c-5,2 -12,4 -23,5 -3,1 -6,1 -8,1 -6,1 -10,3 -13,6 -2,2 -4,6 -4,11 0,5 2,8 5,11 3,2 7,4 13,4 8,0 16,-3 21,-7 6,-4 9,-10 9,-17l0 -14z"/>
  <path class="fil3" d="M0 216l0 -35 5 0 0 31 17 0 0 4 -22 0zm29 -13c0,4 0,6 2,8 1,1 3,2 5,2 3,0 5,-1 6,-2 1,-2 2,-4 2,-8 0,-3 -1,-5 -2,-7 -1,-1 -3,-2 -6,-2 -2,0 -4,1 -5,2 -2,2 -2,4 -2,7zm-5 0c0,-4 1,-7 3,-10 3,-2 6,-3 9,-3 4,0 7,1 9,3 2,3 3,6 3,10 0,5 -1,8 -3,10 -2,3 -5,4 -9,4 -3,0 -6,-1 -9,-4 -2,-2 -3,-5 -3,-10zm43 13l0 -35 25 0 0 5 -20 0 0 10 19 0 0 4 -19 0 0 12 21 0 0 4 -26 0zm31 0l0 -35 4 0 0 35 -4 0zm14 -15l14 0c0,-2 -1,-4 -2,-5 -1,-2 -3,-2 -5,-2 -2,0 -4,0 -5,2 -1,1 -2,3 -2,5zm14 7l4 0c0,3 -2,5 -4,7 -2,1 -4,2 -7,2 -4,0 -6,-1 -8,-4 -2,-2 -3,-5 -3,-9 0,-5 1,-8 3,-10 2,-3 4,-4 8,-4 4,0 6,1 8,3 2,3 3,6 3,10 0,0 0,1 0,1 0,0 0,0 0,1l-18 0c0,2 1,4 2,6 1,1 3,2 5,2 2,0 4,0 5,-1 1,-1 2,-2 2,-4zm26 -9c0,-2 -1,-3 -2,-4 -1,-1 -2,-1 -4,-1 -3,0 -4,1 -6,2 -1,2 -2,4 -2,7 0,3 1,6 2,7 1,2 3,3 5,3 2,0 4,-1 5,-2 1,-1 2,-2 2,-4l4 0c0,3 -1,6 -3,7 -2,2 -5,3 -8,3 -3,0 -6,-1 -8,-4 -2,-2 -3,-5 -3,-9 0,-5 1,-8 3,-10 2,-3 5,-4 9,-4 3,0 5,1 7,2 2,2 3,4 3,7l-4 0zm14 11c0,1 0,2 0,2 1,0 1,1 2,1 0,0 1,0 1,0 0,0 1,-1 1,-1l0 4c0,0 -1,0 -2,0 0,0 -1,0 -1,0 -2,0 -4,0 -4,-1 -1,0 -2,-2 -2,-4l0 -17 -3 0 0 -3 3 0 0 -7 5 0 0 7 4 0 0 3 -4 0 0 16zm8 6l0 -25 4 0 0 4c1,-1 2,-3 3,-3 1,-1 3,-2 4,-2 1,0 1,0 1,0 0,0 0,0 1,0l0 5c-1,0 -1,0 -1,0 0,0 0,0 0,0 -3,0 -4,0 -6,2 -1,1 -1,3 -1,5l0 14 -5 0zm19 -13c0,4 1,6 2,8 2,1 4,2 6,2 3,0 5,-1 6,-2 1,-2 2,-4 2,-8 0,-3 -1,-5 -2,-7 -1,-1 -3,-2 -6,-2 -2,0 -4,1 -6,2 -1,2 -2,4 -2,7zm-4 0c0,-4 1,-7 3,-10 2,-2 5,-3 9,-3 4,0 7,1 9,3 2,3 3,6 3,10 0,5 -1,8 -3,10 -2,3 -5,4 -9,4 -4,0 -7,-1 -9,-4 -2,-2 -3,-5 -3,-10zm9 -16l5 -8 4 0 -6 8 -3 0zm37 29l0 -15c0,-3 0,-5 -1,-6 -1,-1 -2,-1 -4,-1 -2,0 -4,1 -5,2 -2,1 -2,3 -2,6l0 14 -4 0 0 -25 4 0 0 3c1,-1 2,-2 3,-3 1,0 3,-1 5,-1 2,0 3,0 5,1 1,1 2,1 3,3 0,0 0,1 0,2 1,1 1,2 1,4l0 1 0 15 -5 0zm11 -30l0 -5 4 0 0 5 -4 0zm0 30l0 -25 4 0 0 25 -4 0zm28 -17c0,-2 -1,-3 -2,-4 -1,-1 -3,-1 -5,-1 -2,0 -4,1 -5,2 -1,2 -2,4 -2,7 0,3 1,6 2,7 1,2 3,3 5,3 2,0 3,-1 5,-2 1,-1 2,-2 2,-4l4 0c0,3 -1,6 -3,7 -2,2 -5,3 -8,3 -4,0 -7,-1 -8,-4 -2,-2 -3,-5 -3,-9 0,-5 1,-8 3,-10 2,-3 5,-4 8,-4 3,0 6,1 8,2 2,2 3,4 3,7l-4 0zm11 4c0,4 1,6 2,8 2,1 4,2 6,2 3,0 5,-1 6,-2 1,-2 2,-4 2,-8 0,-3 -1,-5 -2,-7 -1,-1 -3,-2 -6,-2 -2,0 -4,1 -6,2 -1,2 -2,4 -2,7zm-4 0c0,-4 1,-7 3,-10 2,-2 5,-3 9,-3 4,0 7,1 9,3 2,3 3,6 3,10 0,5 -1,8 -3,10 -2,3 -5,4 -9,4 -4,0 -7,-1 -9,-4 -2,-2 -3,-5 -3,-10z"/>
  <path class="fil3" d="M556 213c-1,1 -3,2 -4,3 -2,1 -3,1 -5,1 -2,0 -4,-1 -6,-2 -1,-1 -2,-3 -2,-6 0,-2 1,-4 2,-5 2,-1 4,-2 7,-3 0,0 1,0 3,0 2,0 3,0 4,-1 0,0 0,0 1,0 0,-1 0,-1 0,-2 0,-2 -1,-3 -2,-3 -1,-1 -2,-1 -4,-1 -2,0 -3,0 -4,1 -1,1 -2,2 -2,3l-4 0 0 0c0,-2 1,-4 3,-6 2,-1 4,-2 7,-2 4,0 6,1 8,2 1,1 2,3 2,6l0 12c0,2 0,2 0,3 1,0 1,0 2,0 0,0 0,0 0,0 0,0 1,0 1,0l0 3c-1,0 -1,0 -2,0 0,1 0,1 -1,1 -1,0 -2,-1 -3,-1 0,-1 -1,-2 -1,-3l0 0zm0 -10c-1,1 -3,1 -6,2 -1,0 -2,0 -2,0 -2,0 -3,1 -4,1 0,1 -1,2 -1,3 0,1 1,2 2,3 0,1 1,1 3,1 2,0 4,0 6,-2 1,-1 2,-2 2,-4l0 -4zm11 13l0 -35 4 0 0 35 -4 0zm23 -11l4 0c0,2 1,4 3,6 2,1 4,2 6,2 3,0 5,-1 7,-2 1,-1 2,-2 2,-4 0,-3 -3,-5 -9,-7 0,0 0,0 0,0 -5,-1 -8,-2 -10,-3 -1,-2 -2,-4 -2,-6 0,-3 1,-6 3,-8 3,-2 6,-3 9,-3 4,0 7,1 10,3 2,2 3,5 3,8l-5 0c0,-2 -1,-4 -2,-5 -1,-1 -3,-2 -6,-2 -2,0 -4,1 -5,2 -2,1 -3,2 -3,4 0,3 3,5 9,6 1,0 2,0 2,0l1 0c3,1 6,2 7,3 1,1 2,2 2,3 1,1 1,3 1,4 0,3 -1,6 -4,8 -2,2 -5,3 -9,3 -5,0 -8,-1 -10,-3 -3,-2 -4,-5 -4,-9zm36 -4l13 0c0,-2 0,-4 -1,-5 -2,-2 -3,-2 -5,-2 -3,0 -4,0 -5,2 -2,1 -2,3 -2,5zm13 7l5 0c-1,3 -2,5 -4,7 -2,1 -5,2 -8,2 -3,0 -6,-1 -8,-4 -2,-2 -3,-5 -3,-9 0,-5 1,-8 3,-10 2,-3 5,-4 8,-4 4,0 7,1 9,3 2,3 3,6 3,10 0,0 0,1 0,1 0,0 0,0 0,1l-18 0c0,2 0,4 2,6 1,1 3,2 5,2 2,0 3,0 4,-1 1,-1 2,-2 2,-4zm10 8l0 -25 4 0 0 4c1,-1 1,-3 3,-3 1,-1 2,-2 4,-2 0,0 0,0 1,0 0,0 0,0 0,0l0 5c0,0 0,0 0,0 -1,0 -1,0 -1,0 -2,0 -4,0 -5,2 -1,1 -2,3 -2,5l0 14 -4 0zm22 0l-9 -25 4 0 7 20 7 -20 5 0 -10 25 -4 0zm17 -30l0 -5 4 0 0 5 -4 0zm0 30l0 -25 4 0 0 25 -4 0zm28 -17c0,-2 -1,-3 -2,-4 -1,-1 -3,-1 -5,-1 -2,0 -4,1 -5,2 -1,2 -2,4 -2,7 0,3 1,6 2,7 1,2 3,3 5,3 2,0 3,-1 5,-2 1,-1 2,-2 2,-4l4 0c0,3 -1,6 -3,7 -2,2 -5,3 -8,3 -4,0 -6,-1 -8,-4 -2,-2 -3,-5 -3,-9 0,-5 1,-8 3,-10 2,-3 5,-4 8,-4 3,0 6,1 8,2 2,2 3,4 3,7l-4 0zm8 -13l0 -5 5 0 0 5 -5 0zm0 30l0 -25 5 0 0 25 -5 0zm14 -13c0,4 1,6 2,8 1,1 3,2 6,2 2,0 4,-1 6,-2 1,-2 2,-4 2,-8 0,-3 -1,-5 -2,-7 -2,-1 -4,-2 -6,-2 -3,0 -5,1 -6,2 -1,2 -2,4 -2,7zm-4 0c0,-4 1,-7 3,-10 2,-2 5,-3 9,-3 4,0 7,1 9,3 2,3 3,6 3,10 0,5 -1,8 -3,10 -2,3 -5,4 -9,4 -4,0 -7,-1 -9,-4 -2,-2 -3,-5 -3,-10zm61 0c0,-3 -1,-5 -2,-7 -2,-1 -3,-2 -6,-2 -2,0 -4,1 -5,2 -2,2 -2,5 -2,8 0,3 0,5 2,7 1,1 3,2 5,2 3,0 4,-1 6,-2 1,-2 2,-5 2,-8zm4 -22l0 35 -5 0 0 -3c-1,1 -2,2 -3,3 -2,1 -3,1 -5,1 -3,0 -6,-1 -8,-4 -2,-2 -3,-5 -3,-9 0,-5 1,-8 3,-10 2,-3 5,-4 8,-4 2,0 4,0 5,1 1,1 2,2 3,3l0 -13 5 0zm9 20l14 0c0,-2 0,-4 -1,-5 -2,-2 -3,-2 -5,-2 -3,0 -4,0 -5,2 -2,1 -2,3 -3,5zm14 7l4 0c0,3 -1,5 -3,7 -2,1 -5,2 -8,2 -3,0 -6,-1 -8,-4 -2,-2 -3,-5 -3,-9 0,-5 1,-8 3,-10 2,-3 5,-4 8,-4 4,0 7,1 9,3 2,3 3,6 3,10 0,0 0,1 0,1 0,0 0,0 0,1l-18 0c0,2 0,4 1,6 2,1 4,2 6,2 2,0 3,0 4,-1 1,-1 2,-2 2,-4zm23 8l0 -35 4 0 0 35 -4 0zm14 -13c0,4 1,6 2,8 1,1 3,2 6,2 2,0 4,-1 5,-2 2,-2 2,-4 2,-8 0,-3 0,-5 -2,-7 -1,-1 -3,-2 -5,-2 -3,0 -5,1 -6,2 -1,2 -2,4 -2,7zm-4 0c0,-4 1,-7 3,-10 2,-2 5,-3 9,-3 4,0 7,1 9,3 2,3 3,6 3,10 0,5 -1,8 -3,10 -2,3 -5,4 -9,4 -4,0 -7,-1 -9,-4 -2,-2 -3,-5 -3,-10zm48 -6l7 0c3,0 5,0 6,-1 1,-1 2,-3 2,-5 0,-2 -1,-3 -2,-4 -1,-1 -3,-1 -5,-1l-8 0 0 11zm-5 19l0 -35 13 0c2,0 3,0 4,1 1,0 2,0 3,1 2,0 3,2 4,3 0,2 1,3 1,5 0,2 -1,4 -1,5 -1,2 -2,3 -4,4 -1,1 -2,1 -3,1 -1,0 -3,0 -5,0l-7 0 0 15 -5 0zm34 -25l0 15c0,3 0,5 1,6 1,0 2,1 4,1 3,0 4,-1 6,-2 1,-2 2,-4 2,-7l0 -13 4 0 0 25 -4 0 0 -4c-1,2 -2,3 -4,4 -1,0 -3,1 -5,1 -1,0 -3,-1 -4,-1 -1,-1 -2,-2 -3,-3 -1,0 -1,-1 -1,-2 0,-1 0,-2 0,-4l0 -1 0 -15 4 0zm3 -4l5 -8 5 0 -7 8 -3 0zm24 16c0,3 1,6 2,8 2,1 4,2 6,2 2,0 4,-1 5,-2 2,-2 3,-4 3,-7 0,-3 -1,-6 -2,-8 -2,-1 -4,-2 -6,-2 -2,0 -4,1 -6,2 -1,2 -2,4 -2,7zm-4 13l0 -35 5 0 0 13c1,-1 2,-2 3,-3 2,-1 3,-1 5,-1 3,0 6,1 8,4 2,2 3,5 3,10 0,4 -1,7 -3,9 -2,3 -5,4 -8,4 -2,0 -3,0 -5,-1 -1,-1 -2,-2 -3,-3l0 3 -5 0zm29 0l0 -35 5 0 0 35 -5 0zm11 -30l0 -5 4 0 0 5 -4 0zm0 30l0 -25 4 0 0 25 -4 0zm28 -17c0,-2 -1,-3 -2,-4 -1,-1 -3,-1 -5,-1 -2,0 -4,1 -5,2 -1,2 -2,4 -2,7 0,3 1,6 2,7 1,2 3,3 5,3 2,0 3,-1 5,-2 1,-1 2,-2 2,-4l4 0c0,3 -1,6 -3,7 -2,2 -5,3 -8,3 -4,0 -7,-1 -8,-4 -2,-2 -3,-5 -3,-9 0,-5 1,-8 3,-10 2,-3 5,-4 8,-4 3,0 6,1 8,2 2,2 3,4 3,7l-4 0zm11 4c0,4 1,6 2,8 2,1 4,2 6,2 3,0 5,-1 6,-2 1,-2 2,-4 2,-8 0,-3 -1,-5 -2,-7 -1,-1 -3,-2 -6,-2 -2,0 -4,1 -6,2 -1,2 -2,4 -2,7zm-4 0c0,-4 1,-7 3,-10 2,-2 5,-3 9,-3 4,0 7,1 9,3 2,3 3,6 3,10 0,5 -1,8 -3,10 -2,3 -5,4 -9,4 -4,0 -7,-1 -9,-4 -2,-2 -3,-5 -3,-10z"/>
 </g>
</svg>
